<svg width="30" height="27" viewBox="0 0 30 27" fill="none" xmlns="http://www.w3.org/2000/svg">
<path d="M2.46208 0.565362C1.93884 0.00516217 1 0.375417 1 1.14197V25.9154C1 26.382 1.3782 26.7602 1.84474 26.7602H4.16565C4.63218 26.7602 5.01038 26.382 5.01038 25.9154V11.5202C5.01038 10.7541 5.94843 10.3836 6.47193 10.9431L18.3739 23.6622C18.6998 24.0105 19.2493 24.02 19.5871 23.6832L21.3213 21.9541C21.6441 21.6322 21.6534 21.1124 21.3422 20.7793L2.46208 0.565362Z" fill="#EEEEEE"/>
<path d="M27.5379 26.5162C28.0612 27.0764 29 26.7061 29 25.9396V1.16613C29 0.69959 28.6218 0.321387 28.1553 0.321387H25.8344C25.3678 0.321387 24.9896 0.699589 24.9896 1.16612V15.5613C24.9896 16.3275 24.0516 16.6979 23.5281 16.1385L11.6262 3.41935C11.3002 3.07103 10.7507 3.06151 10.4129 3.39833L8.67871 5.12748C8.35593 5.44931 8.34669 5.96917 8.65781 6.30228L18.5499 16.8932L27.5379 26.5162Z" fill="#EEEEEE"/>
<path d="M2.46208 0.565362C1.93884 0.00516217 1 0.375417 1 1.14197V25.9154C1 26.382 1.3782 26.7602 1.84474 26.7602H4.16565C4.63218 26.7602 5.01038 26.382 5.01038 25.9154V11.5202C5.01038 10.7541 5.94843 10.3836 6.47193 10.9431L18.3739 23.6622C18.6998 24.0105 19.2493 24.02 19.5871 23.6832L21.3213 21.9541C21.6441 21.6322 21.6534 21.1124 21.3422 20.7793L2.46208 0.565362Z" stroke="#EEEEEE" stroke-width="0.048616"/>
<path d="M27.5379 26.5162C28.0612 27.0764 29 26.7061 29 25.9396V1.16613C29 0.69959 28.6218 0.321387 28.1553 0.321387H25.8344C25.3678 0.321387 24.9896 0.699589 24.9896 1.16612V15.5613C24.9896 16.3275 24.0516 16.6979 23.5281 16.1385L11.6262 3.41935C11.3002 3.07103 10.7507 3.06151 10.4129 3.39833L8.67871 5.12748C8.35593 5.44931 8.34669 5.96917 8.65781 6.30228L18.5499 16.8932L27.5379 26.5162Z" stroke="#EEEEEE" stroke-width="0.048616"/>
</svg>
